<mxfile host="app.diagrams.net" agent="Mozilla/5.0 (Windows NT 10.0; Win64; x64) AppleWebKit/537.36 (KHTML, like Gecko) Chrome/131.0.0.0 Safari/537.36" version="24.9.3">
  <diagram name="Página-1" id="uQEMmvssTPvJ5DPufRJf">
    <mxGraphModel dx="1434" dy="780" grid="1" gridSize="10" guides="1" tooltips="1" connect="1" arrows="1" fold="1" page="1" pageScale="1" pageWidth="827" pageHeight="1169" math="0" shadow="0">
      <root>
        <mxCell id="0" />
        <mxCell id="1" parent="0" />
        <mxCell id="2Mwwbc90E_nYIf59NP4B-6" value="Adicionar contato" style="ellipse;whiteSpace=wrap;html=1;" parent="1" vertex="1">
          <mxGeometry x="350" y="50" width="130" height="70" as="geometry" />
        </mxCell>
        <mxCell id="2Mwwbc90E_nYIf59NP4B-8" value="" style="endArrow=open;endFill=1;endSize=12;html=1;rounded=0;exitX=0.5;exitY=0.5;exitDx=0;exitDy=0;exitPerimeter=0;" parent="1" source="N6wAdTiqHCBUAlY8DSNw-11" target="2Mwwbc90E_nYIf59NP4B-6" edge="1">
          <mxGeometry width="160" relative="1" as="geometry">
            <mxPoint x="195" y="190" as="sourcePoint" />
            <mxPoint x="490" y="290" as="targetPoint" />
          </mxGeometry>
        </mxCell>
        <mxCell id="2Mwwbc90E_nYIf59NP4B-9" value="Apaga contato" style="ellipse;whiteSpace=wrap;html=1;" parent="1" vertex="1">
          <mxGeometry x="450" y="110" width="140" height="70" as="geometry" />
        </mxCell>
        <mxCell id="2Mwwbc90E_nYIf59NP4B-12" value="Editar o contato" style="ellipse;whiteSpace=wrap;html=1;" parent="1" vertex="1">
          <mxGeometry x="470" y="200" width="140" height="70" as="geometry" />
        </mxCell>
        <mxCell id="2Mwwbc90E_nYIf59NP4B-13" value="" style="endArrow=open;endFill=1;endSize=12;html=1;rounded=0;exitX=0.5;exitY=0.5;exitDx=0;exitDy=0;exitPerimeter=0;" parent="1" source="N6wAdTiqHCBUAlY8DSNw-11" target="2Mwwbc90E_nYIf59NP4B-12" edge="1">
          <mxGeometry width="160" relative="1" as="geometry">
            <mxPoint x="195" y="190" as="sourcePoint" />
            <mxPoint x="490" y="290" as="targetPoint" />
          </mxGeometry>
        </mxCell>
        <mxCell id="2Mwwbc90E_nYIf59NP4B-14" value="" style="endArrow=open;endFill=1;endSize=12;html=1;rounded=0;exitX=0.5;exitY=0.5;exitDx=0;exitDy=0;exitPerimeter=0;" parent="1" source="N6wAdTiqHCBUAlY8DSNw-11" target="2Mwwbc90E_nYIf59NP4B-9" edge="1">
          <mxGeometry width="160" relative="1" as="geometry">
            <mxPoint x="195" y="190" as="sourcePoint" />
            <mxPoint x="490" y="290" as="targetPoint" />
          </mxGeometry>
        </mxCell>
        <mxCell id="2Mwwbc90E_nYIf59NP4B-15" value="Agenda" style="swimlane;fontStyle=0;childLayout=stackLayout;horizontal=1;startSize=26;fillColor=none;horizontalStack=0;resizeParent=1;resizeParentMax=0;resizeLast=0;collapsible=1;marginBottom=0;whiteSpace=wrap;html=1;" parent="1" vertex="1">
          <mxGeometry x="120" y="470" width="140" height="104" as="geometry" />
        </mxCell>
        <mxCell id="2Mwwbc90E_nYIf59NP4B-16" value="+ ID: INT" style="text;strokeColor=none;fillColor=none;align=left;verticalAlign=top;spacingLeft=4;spacingRight=4;overflow=hidden;rotatable=0;points=[[0,0.5],[1,0.5]];portConstraint=eastwest;whiteSpace=wrap;html=1;" parent="2Mwwbc90E_nYIf59NP4B-15" vertex="1">
          <mxGeometry y="26" width="140" height="26" as="geometry" />
        </mxCell>
        <mxCell id="2Mwwbc90E_nYIf59NP4B-17" value="+ Nome: Varchar" style="text;strokeColor=none;fillColor=none;align=left;verticalAlign=top;spacingLeft=4;spacingRight=4;overflow=hidden;rotatable=0;points=[[0,0.5],[1,0.5]];portConstraint=eastwest;whiteSpace=wrap;html=1;" parent="2Mwwbc90E_nYIf59NP4B-15" vertex="1">
          <mxGeometry y="52" width="140" height="26" as="geometry" />
        </mxCell>
        <mxCell id="2Mwwbc90E_nYIf59NP4B-18" value="+ Número: Varchar" style="text;strokeColor=none;fillColor=none;align=left;verticalAlign=top;spacingLeft=4;spacingRight=4;overflow=hidden;rotatable=0;points=[[0,0.5],[1,0.5]];portConstraint=eastwest;whiteSpace=wrap;html=1;" parent="2Mwwbc90E_nYIf59NP4B-15" vertex="1">
          <mxGeometry y="78" width="140" height="26" as="geometry" />
        </mxCell>
        <mxCell id="N6wAdTiqHCBUAlY8DSNw-6" value="Voltar" style="ellipse;whiteSpace=wrap;html=1;" vertex="1" parent="1">
          <mxGeometry x="410" y="280" width="120" height="80" as="geometry" />
        </mxCell>
        <mxCell id="N6wAdTiqHCBUAlY8DSNw-7" value="Salvar o contato" style="ellipse;whiteSpace=wrap;html=1;" vertex="1" parent="1">
          <mxGeometry x="294" y="360" width="120" height="80" as="geometry" />
        </mxCell>
        <mxCell id="N6wAdTiqHCBUAlY8DSNw-9" value="" style="endArrow=open;endFill=1;endSize=12;html=1;rounded=0;exitX=0.5;exitY=0.5;exitDx=0;exitDy=0;exitPerimeter=0;" edge="1" parent="1" source="N6wAdTiqHCBUAlY8DSNw-11" target="N6wAdTiqHCBUAlY8DSNw-6">
          <mxGeometry width="160" relative="1" as="geometry">
            <mxPoint x="198" y="203.98000000000002" as="sourcePoint" />
            <mxPoint x="430" y="290" as="targetPoint" />
          </mxGeometry>
        </mxCell>
        <mxCell id="N6wAdTiqHCBUAlY8DSNw-10" value="" style="endArrow=open;endFill=1;endSize=12;html=1;rounded=0;exitX=0.5;exitY=0.5;exitDx=0;exitDy=0;exitPerimeter=0;" edge="1" parent="1" source="N6wAdTiqHCBUAlY8DSNw-11" target="N6wAdTiqHCBUAlY8DSNw-7">
          <mxGeometry width="160" relative="1" as="geometry">
            <mxPoint x="210" y="209.81132075471692" as="sourcePoint" />
            <mxPoint x="430" y="420" as="targetPoint" />
          </mxGeometry>
        </mxCell>
        <mxCell id="N6wAdTiqHCBUAlY8DSNw-11" value="Usuário" style="shape=umlActor;verticalLabelPosition=bottom;verticalAlign=top;html=1;" vertex="1" parent="1">
          <mxGeometry x="120" y="140" width="50" height="95" as="geometry" />
        </mxCell>
      </root>
    </mxGraphModel>
  </diagram>
</mxfile>
